<?xml version="1.0" encoding="UTF-8"?>
<svg width="512" height="512" viewBox="0 0 512 512" fill="none" xmlns="http://www.w3.org/2000/svg">
  <rect width="512" height="512" fill="#00F5D4"/>
  <path d="M128 256C128 176.471 192.471 112 272 112C351.529 112 416 176.471 416 256C416 335.529 351.529 400 272 400C192.471 400 128 335.529 128 256ZM272 368C334.408 368 384 318.408 384 256C384 193.592 334.408 144 272 144C209.592 144 160 193.592 160 256C160 318.408 209.592 368 272 368Z" fill="white"/>
  <path d="M272 208C297.405 208 318 228.595 318 254C318 279.405 297.405 300 272 300C246.595 300 226 279.405 226 254C226 228.595 246.595 208 272 208Z" fill="white"/>
</svg> 