<?xml version="1.0" encoding="UTF-8"?>
<svg width="512" height="512" viewBox="0 0 512 512" fill="none" xmlns="http://www.w3.org/2000/svg">
  <rect width="512" height="512" fill="#003af5"/>
  <path d="M142 308V204H190.4C203.867 204 214.8 206.4 223.2 211.2C231.6 215.867 237.867 222.267 242 230.4C246.267 238.4 248.4 247.6 248.4 258C248.4 268.4 246.267 277.667 242 285.8C237.867 293.933 231.6 300.4 223.2 305.2C214.8 310 203.867 312.4 190.4 312.4H142V308ZM154 300.4H190.4C201.333 300.4 210.267 298.533 217.2 294.8C224.267 291.067 229.467 285.933 232.8 279.4C236.133 272.733 237.8 265.867 237.8 258C237.8 250.133 236.133 243.333 232.8 236.8C229.467 230.133 224.267 224.933 217.2 221.2C210.267 217.467 201.333 215.6 190.4 215.6H154V300.4Z" fill="white"/>
  <path d="M272.494 308V204H320.894C334.361 204 345.294 206.4 353.694 211.2C362.094 215.867 368.361 222.267 372.494 230.4C376.761 238.4 378.894 247.6 378.894 258C378.894 268.4 376.761 277.667 372.494 285.8C368.361 293.933 362.094 300.4 353.694 305.2C345.294 310 334.361 312.4 320.894 312.4H272.494V308ZM284.494 300.4H320.894C331.827 300.4 340.761 298.533 347.694 294.8C354.761 291.067 359.961 285.933 363.294 279.4C366.627 272.733 368.294 265.867 368.294 258C368.294 250.133 366.627 243.333 363.294 236.8C359.961 230.133 354.761 224.933 347.694 221.2C340.761 217.467 331.827 215.6 320.894 215.6H284.494V300.4Z" fill="white"/>
  <path d="M402.988 308V204H451.388C464.855 204 475.788 206.4 484.188 211.2C492.588 215.867 498.855 222.267 502.988 230.4C507.255 238.4 509.388 247.6 509.388 258C509.388 268.4 507.255 277.667 502.988 285.8C498.855 293.933 492.588 300.4 484.188 305.2C475.788 310 464.855 312.4 451.388 312.4H402.988V308ZM414.988 300.4H451.388C462.321 300.4 471.255 298.533 478.188 294.8C485.255 291.067 490.455 285.933 493.788 279.4C497.121 272.733 498.788 265.867 498.788 258C498.788 250.133 497.121 243.333 493.788 236.8C490.455 230.133 485.255 224.933 478.188 221.2C471.255 217.467 462.321 215.6 451.388 215.6H414.988V300.4Z" fill="white"/>
</svg> 